<svg xmlns="http://www.w3.org/2000/svg" xmlns:xlink="http://www.w3.org/1999/xlink">

<symbol id="svg__chevron" viewBox="0 0 32 32"><path d="M21.291 9.572l-2.206-2.15-8.375 8.688 8.387 8.469 2.188-2.175-6.25-6.313z"/></symbol>

<symbol id="svg__circle-arrow" viewBox="0 0 32 32"><g data-name="Layer 2"><path d="M17.6 8.8a8.81 8.81 0 01-8.8 8.8A8.88 8.88 0 010 8.8 8.88 8.88 0 018.8 0a8.81 8.81 0 018.8 8.8zm-6.4-3.6L10 4 5.5 8.7l4.6 4.6 1.2-1.2-3.4-3.4z" fill="#444545" data-name="Layer 1"/></g></symbol>

<symbol id="svg__view-add" viewBox="0 0 32 32"><path d="M17.337 6.688c0-2.52 1.925-4.563 4.3-4.563s4.3 2.043 4.3 4.563-1.925 4.563-4.3 4.563-4.3-2.043-4.3-4.563zm-3.29 13.775a3.528 3.528 0 00-2.425-.956c-.468 0-.912.087-1.331.256a3.264 3.264 0 00-1.819 1.744c-.181.4-.269.819-.269 1.275s.094.881.269 1.275c.175.4.419.744.725 1.044a3.528 3.528 0 002.425.956c.468 0 .912-.087 1.331-.256a3.264 3.264 0 001.819-1.744c.181-.4.269-.819.269-1.275s-.094-.881-.269-1.275a3.302 3.302 0 00-.725-1.044zm8.509 1.268c.25.444.375.806.375 1.081s-.125.637-.375 1.081c-.25.444-.613.919-1.094 1.419-.475.5-1.056 1.012-1.731 1.525-.681.519-1.438.981-2.281 1.394-.838.412-1.756.75-2.75 1.006s-2.038.387-3.138.387a12.47 12.47 0 01-3.15-.387c-.988-.256-1.9-.594-2.738-1.006s-1.6-.875-2.281-1.394c-.681-.519-1.256-1.025-1.731-1.525s-.838-.975-1.094-1.419c-.25-.444-.375-.806-.375-1.081s.125-.637.375-1.081c.25-.444.613-.919 1.094-1.419s1.056-1.012 1.731-1.525a13.643 13.643 0 012.281-1.394c.838-.412 1.756-.75 2.738-1.006S10.449 16 11.562 16c1.1 0 2.144.131 3.137.387s1.912.594 2.75 1.006c.837.413 1.6.875 2.281 1.394s1.256 1.025 1.731 1.525.837.975 1.094 1.419zm-5.572 1.045c0-.712-.144-1.375-.425-2s-.669-1.163-1.15-1.625c-.488-.462-1.05-.825-1.7-1.094s-1.344-.4-2.088-.4-1.438.131-2.088.4c-.644.269-1.213.631-1.7 1.094s-.869 1-1.15 1.625-.425 1.288-.425 2 .144 1.375.425 2 .669 1.163 1.15 1.625c.488.462 1.05.825 1.7 1.094s1.344.4 2.088.4 1.438-.131 2.088-.4c.644-.269 1.213-.631 1.7-1.094s.869-1 1.15-1.625.425-1.288.425-2zm11.891-8.401c-2.063-2.188-4.813-2.313-4.813-2.313h-6.688s-1.438.188-2.25.625-1.375.938-1.313 1.75c0 0 4.35-.031 7.5 1.688 4.813 2.625 5.294 5.887 5.375 6.5.188 1.375.156 2.944-1.5 4.25l-.813.625s2.938-.688 4.313-1.063 1.813-.75 1.813-.75v-7.125s.438-2-1.625-4.188z"/></symbol>

</svg>
